<svg id="visual" viewBox="0 0 900 600" width="900" height="600" xmlns="http://www.w3.org/2000/svg" xmlns:xlink="http://www.w3.org/1999/xlink" version="1.1"><rect x="0" y="0" width="900" height="600" fill="#fff"></rect><defs><linearGradient id="grad1_0" x1="33.3%" y1="0%" x2="100%" y2="100%"><stop offset="20%" stop-color="#ffffff" stop-opacity="1"></stop><stop offset="80%" stop-color="#ffffff" stop-opacity="1"></stop></linearGradient></defs><defs><linearGradient id="grad2_0" x1="0%" y1="0%" x2="66.7%" y2="100%"><stop offset="20%" stop-color="#ffffff" stop-opacity="1"></stop><stop offset="80%" stop-color="#ffffff" stop-opacity="1"></stop></linearGradient></defs><g transform="translate(900, 0)"><path d="M0 486.7C-82.1 469.6 -164.2 452.4 -239 414C-313.8 375.5 -381.5 315.9 -421.5 243.4C-461.6 170.8 -474.2 85.4 -486.7 0L0 0Z" fill="#EEF0F3"></path></g><g transform="translate(0, 600)"><path d="M0 -486.7C91.5 -477.7 183.1 -468.7 243.4 -421.5C303.7 -374.4 332.7 -289.1 368.1 -212.5C403.4 -135.9 445.1 -67.9 486.7 0L0 0Z" fill="#EEF0F3"></path></g></svg>