<svg id="visual" viewBox="0 0 900 600" width="900" height="600" xmlns="http://www.w3.org/2000/svg" xmlns:xlink="http://www.w3.org/1999/xlink" version="1.1"><rect x="0" y="0" width="900" height="600" fill="#fff"></rect><defs><linearGradient id="grad1_0" x1="33.3%" y1="0%" x2="100%" y2="100%"><stop offset="20%" stop-color="#ffffff" stop-opacity="1"></stop><stop offset="80%" stop-color="#ffffff" stop-opacity="1"></stop></linearGradient></defs><defs><linearGradient id="grad2_0" x1="0%" y1="0%" x2="66.7%" y2="100%"><stop offset="20%" stop-color="#ffffff" stop-opacity="1"></stop><stop offset="80%" stop-color="#ffffff" stop-opacity="1"></stop></linearGradient></defs><g transform="translate(900, 0)"><path d="M0 459.7C-80.6 447.8 -161.2 435.9 -229.9 398.1C-298.5 360.3 -355.1 296.7 -391.4 226C-427.8 155.3 -443.7 77.7 -459.7 0L0 0Z" fill="#EEF0F3"></path></g><g transform="translate(0, 600)"><path d="M0 -459.7C82.5 -448.9 164.9 -438 229.9 -398.1C294.8 -358.2 342.2 -289.2 377.6 -218C413 -146.8 436.3 -73.4 459.7 0L0 0Z" fill="#EEF0F3"></path></g></svg>