<svg id="visual" viewBox="0 0 900 600" width="900" height="600" xmlns="http://www.w3.org/2000/svg" xmlns:xlink="http://www.w3.org/1999/xlink" version="1.1"><rect x="0" y="0" width="900" height="600" fill="#fff"></rect><defs><linearGradient id="grad1_0" x1="33.3%" y1="0%" x2="100%" y2="100%"><stop offset="20%" stop-color="#dee1e7" stop-opacity="1"></stop><stop offset="80%" stop-color="#dee1e7" stop-opacity="1"></stop></linearGradient></defs><defs><linearGradient id="grad1_1" x1="33.3%" y1="0%" x2="100%" y2="100%"><stop offset="20%" stop-color="#dee1e7" stop-opacity="1"></stop><stop offset="80%" stop-color="#e5e7ec" stop-opacity="1"></stop></linearGradient></defs><defs><linearGradient id="grad1_2" x1="33.3%" y1="0%" x2="100%" y2="100%"><stop offset="20%" stop-color="#ebedf1" stop-opacity="1"></stop><stop offset="80%" stop-color="#e5e7ec" stop-opacity="1"></stop></linearGradient></defs><defs><linearGradient id="grad1_3" x1="33.3%" y1="0%" x2="100%" y2="100%"><stop offset="20%" stop-color="#ebedf1" stop-opacity="1"></stop><stop offset="80%" stop-color="#f2f3f5" stop-opacity="1"></stop></linearGradient></defs><defs><linearGradient id="grad1_4" x1="33.3%" y1="0%" x2="100%" y2="100%"><stop offset="20%" stop-color="#f8f9fa" stop-opacity="1"></stop><stop offset="80%" stop-color="#f2f3f5" stop-opacity="1"></stop></linearGradient></defs><defs><linearGradient id="grad1_5" x1="33.3%" y1="0%" x2="100%" y2="100%"><stop offset="20%" stop-color="#f8f9fa" stop-opacity="1"></stop><stop offset="80%" stop-color="#ffffff" stop-opacity="1"></stop></linearGradient></defs><defs><linearGradient id="grad2_0" x1="0%" y1="0%" x2="66.7%" y2="100%"><stop offset="20%" stop-color="#dee1e7" stop-opacity="1"></stop><stop offset="80%" stop-color="#dee1e7" stop-opacity="1"></stop></linearGradient></defs><defs><linearGradient id="grad2_1" x1="0%" y1="0%" x2="66.7%" y2="100%"><stop offset="20%" stop-color="#e5e7ec" stop-opacity="1"></stop><stop offset="80%" stop-color="#dee1e7" stop-opacity="1"></stop></linearGradient></defs><defs><linearGradient id="grad2_2" x1="0%" y1="0%" x2="66.7%" y2="100%"><stop offset="20%" stop-color="#e5e7ec" stop-opacity="1"></stop><stop offset="80%" stop-color="#ebedf1" stop-opacity="1"></stop></linearGradient></defs><defs><linearGradient id="grad2_3" x1="0%" y1="0%" x2="66.7%" y2="100%"><stop offset="20%" stop-color="#f2f3f5" stop-opacity="1"></stop><stop offset="80%" stop-color="#ebedf1" stop-opacity="1"></stop></linearGradient></defs><defs><linearGradient id="grad2_4" x1="0%" y1="0%" x2="66.7%" y2="100%"><stop offset="20%" stop-color="#f2f3f5" stop-opacity="1"></stop><stop offset="80%" stop-color="#f8f9fa" stop-opacity="1"></stop></linearGradient></defs><defs><linearGradient id="grad2_5" x1="0%" y1="0%" x2="66.7%" y2="100%"><stop offset="20%" stop-color="#ffffff" stop-opacity="1"></stop><stop offset="80%" stop-color="#f8f9fa" stop-opacity="1"></stop></linearGradient></defs><g transform="translate(900, 0)"><path d="M0 459.7C-81.8 448.5 -163.5 437.2 -229.9 398.1C-296.2 359 -347 292 -382.8 221C-418.5 150 -439.1 75 -459.7 0L0 0Z" fill="#fcfcfd"></path><path d="M0 383.1C-68.1 373.7 -136.3 364.4 -191.5 331.8C-246.8 299.2 -289.2 243.3 -319 184.2C-348.8 125 -365.9 62.5 -383.1 0L0 0Z" fill="#f5f6f8"></path><path d="M0 306.5C-54.5 299 -109 291.5 -153.2 265.4C-197.4 239.3 -231.4 194.7 -255.2 147.3C-279 100 -292.7 50 -306.5 0L0 0Z" fill="#eef0f3"></path><path d="M0 229.9C-40.9 224.2 -81.8 218.6 -114.9 199.1C-148.1 179.5 -173.5 146 -191.4 110.5C-209.3 75 -219.6 37.5 -229.9 0L0 0Z" fill="#e8eaee"></path><path d="M0 153.2C-27.3 149.5 -54.5 145.7 -76.6 132.7C-98.7 119.7 -115.7 97.3 -127.6 73.7C-139.5 50 -146.4 25 -153.2 0L0 0Z" fill="#e1e4e9"></path><path d="M0 76.6C-13.6 74.7 -27.3 72.9 -38.3 66.4C-49.4 59.8 -57.8 48.7 -63.8 36.8C-69.8 25 -73.2 12.5 -76.6 0L0 0Z" fill="#dee1e7"></path></g><g transform="translate(0, 600)"><path d="M0 -459.7C73.7 -436.8 147.3 -413.9 218.5 -378.5C289.7 -343 358.3 -295 398.1 -229.9C437.9 -164.7 448.8 -82.3 459.7 0L0 0Z" fill="#fcfcfd"></path><path d="M0 -383.1C61.4 -364 122.8 -344.9 182.1 -315.4C241.4 -285.8 298.6 -245.8 331.8 -191.5C364.9 -137.2 374 -68.6 383.1 0L0 0Z" fill="#f5f6f8"></path><path d="M0 -306.5C49.1 -291.2 98.2 -275.9 145.7 -252.3C193.1 -228.7 238.9 -196.7 265.4 -153.2C291.9 -109.8 299.2 -54.9 306.5 0L0 0Z" fill="#eef0f3"></path><path d="M0 -229.9C36.8 -218.4 73.7 -206.9 109.2 -189.2C144.8 -171.5 179.2 -147.5 199.1 -114.9C219 -82.3 224.4 -41.2 229.9 0L0 0Z" fill="#e8eaee"></path><path d="M0 -153.2C24.6 -145.6 49.1 -138 72.8 -126.2C96.6 -114.3 119.4 -98.3 132.7 -76.6C146 -54.9 149.6 -27.4 153.2 0L0 0Z" fill="#e1e4e9"></path><path d="M0 -76.6C12.3 -72.8 24.6 -69 36.4 -63.1C48.3 -57.2 59.7 -49.2 66.4 -38.3C73 -27.4 74.8 -13.7 76.6 0L0 0Z" fill="#dee1e7"></path></g></svg>