<svg id="visual" viewBox="0 0 900 600" width="900" height="600" xmlns="http://www.w3.org/2000/svg" xmlns:xlink="http://www.w3.org/1999/xlink" version="1.1"><rect x="0" y="0" width="900" height="600" fill="#fff"></rect><defs><linearGradient id="grad1_0" x1="33.3%" y1="0%" x2="100%" y2="100%"><stop offset="20%" stop-color="#ffffff" stop-opacity="1"></stop><stop offset="80%" stop-color="#ffffff" stop-opacity="1"></stop></linearGradient></defs><defs><linearGradient id="grad2_0" x1="0%" y1="0%" x2="66.7%" y2="100%"><stop offset="20%" stop-color="#ffffff" stop-opacity="1"></stop><stop offset="80%" stop-color="#ffffff" stop-opacity="1"></stop></linearGradient></defs><g transform="translate(900, 0)"><path d="M0 486.7C-71.7 451.5 -143.4 416.3 -219.5 380.2C-295.6 344 -376.3 306.9 -421.5 243.4C-466.8 179.9 -476.8 89.9 -486.7 0L0 0Z" fill="#272727"></path></g><g transform="translate(0, 600)"><path d="M0 -486.7C89.1 -476.3 178.2 -465.9 243.4 -421.5C308.5 -377.2 349.7 -298.9 386.2 -223C422.8 -147.1 454.8 -73.5 486.7 0L0 0Z" fill="#272727"></path></g></svg>