<svg id="visual" viewBox="0 0 900 600" width="900" height="600" xmlns="http://www.w3.org/2000/svg" xmlns:xlink="http://www.w3.org/1999/xlink" version="1.1"><rect x="0" y="0" width="900" height="600" fill="#fff"></rect><defs><linearGradient id="grad1_0" x1="33.3%" y1="0%" x2="100%" y2="100%"><stop offset="20%" stop-color="#ffffff" stop-opacity="1"></stop><stop offset="80%" stop-color="#ffffff" stop-opacity="1"></stop></linearGradient></defs><defs><linearGradient id="grad2_0" x1="0%" y1="0%" x2="66.7%" y2="100%"><stop offset="20%" stop-color="#ffffff" stop-opacity="1"></stop><stop offset="80%" stop-color="#ffffff" stop-opacity="1"></stop></linearGradient></defs><g transform="translate(900, 0)"><path d="M0 486.7C-53.6 451.7 -107.3 416.6 -163 393.6C-218.8 370.6 -276.7 359.6 -328.1 328.1C-379.5 296.6 -424.3 244.4 -449.7 186.3C-475.1 128.2 -480.9 64.1 -486.7 0L0 0Z" fill="#f6f4f4"></path></g><g transform="translate(0, 600)"><path d="M0 -486.7C60 -472.2 120 -457.7 181 -437C242.1 -416.3 304.2 -389.4 344.2 -344.2C384.2 -298.9 402.1 -235.3 422.2 -174.9C442.3 -114.5 464.5 -57.2 486.7 0L0 0Z" fill="#f6f4f4"></path></g></svg>